<mxfile host="drawio-plugin" modified="2022-12-19T23:32:22.360Z" agent="5.0 (Windows NT 6.2; Win64; x64) AppleWebKit/537.36 (KHTML, like Gecko) Chrome/104.0.5112.102 Safari/537.36" etag="-fCG548e1AVOzz4cq_9B" version="20.5.3" type="embed"><diagram id="sa6Q3xUmAi24UDrEMSUv" name="Página-1"><mxGraphModel dx="1883" dy="1383" grid="1" gridSize="10" guides="1" tooltips="1" connect="1" arrows="1" fold="1" page="1" pageScale="1" pageWidth="827" pageHeight="1169" math="0" shadow="0"><root><mxCell id="0"/><mxCell id="1" parent="0"/><mxCell id="9" style="edgeStyle=orthogonalEdgeStyle;rounded=0;orthogonalLoop=1;jettySize=auto;html=1;" parent="1" source="7" target="8" edge="1"><mxGeometry relative="1" as="geometry"/></mxCell><mxCell id="7" value="CHECKING FOR ON GOING GAME" style="rounded=0;whiteSpace=wrap;html=1;" parent="1" vertex="1"><mxGeometry x="-400" y="-520" width="120" height="40" as="geometry"/></mxCell><mxCell id="22" style="edgeStyle=orthogonalEdgeStyle;rounded=0;orthogonalLoop=1;jettySize=auto;html=1;exitX=0;exitY=0.5;exitDx=0;exitDy=0;" parent="1" source="8" target="21" edge="1"><mxGeometry relative="1" as="geometry"/></mxCell><mxCell id="24" style="edgeStyle=orthogonalEdgeStyle;rounded=0;orthogonalLoop=1;jettySize=auto;html=1;exitX=1;exitY=0.5;exitDx=0;exitDy=0;" parent="1" source="8" target="23" edge="1"><mxGeometry relative="1" as="geometry"/></mxCell><mxCell id="8" value="has started" style="rhombus;whiteSpace=wrap;html=1;" parent="1" vertex="1"><mxGeometry x="-400" y="-400" width="120" height="70" as="geometry"/></mxCell><mxCell id="30" style="edgeStyle=orthogonalEdgeStyle;rounded=0;orthogonalLoop=1;jettySize=auto;html=1;" parent="1" source="21" target="29" edge="1"><mxGeometry relative="1" as="geometry"/></mxCell><mxCell id="21" value="UPDATE GAME WHILE NECESSARY" style="rounded=0;whiteSpace=wrap;html=1;" parent="1" vertex="1"><mxGeometry x="-480" y="-280" width="120" height="40" as="geometry"/></mxCell><mxCell id="55" style="edgeStyle=orthogonalEdgeStyle;rounded=0;orthogonalLoop=1;jettySize=auto;html=1;exitX=0;exitY=0.5;exitDx=0;exitDy=0;" edge="1" parent="1" source="23" target="54"><mxGeometry relative="1" as="geometry"/></mxCell><mxCell id="23" value="MENU" style="rounded=0;whiteSpace=wrap;html=1;" parent="1" vertex="1"><mxGeometry x="-30" y="-270" width="120" height="40" as="geometry"/></mxCell><mxCell id="25" value="1" style="text;html=1;align=center;verticalAlign=middle;resizable=0;points=[];autosize=1;strokeColor=none;fillColor=none;" parent="1" vertex="1"><mxGeometry x="-420" y="-395" width="30" height="30" as="geometry"/></mxCell><mxCell id="26" value="0" style="text;html=1;align=center;verticalAlign=middle;resizable=0;points=[];autosize=1;strokeColor=none;fillColor=none;" parent="1" vertex="1"><mxGeometry x="-280" y="-395" width="30" height="30" as="geometry"/></mxCell><mxCell id="34" style="edgeStyle=orthogonalEdgeStyle;rounded=0;orthogonalLoop=1;jettySize=auto;html=1;exitX=0;exitY=0.5;exitDx=0;exitDy=0;" parent="1" source="29" target="33" edge="1"><mxGeometry relative="1" as="geometry"/></mxCell><mxCell id="37" style="edgeStyle=orthogonalEdgeStyle;rounded=0;orthogonalLoop=1;jettySize=auto;html=1;" parent="1" source="29" target="36" edge="1"><mxGeometry relative="1" as="geometry"/></mxCell><mxCell id="29" value="is in battle" style="rhombus;whiteSpace=wrap;html=1;" parent="1" vertex="1"><mxGeometry x="-480" y="-190" width="120" height="70" as="geometry"/></mxCell><mxCell id="71" style="edgeStyle=orthogonalEdgeStyle;rounded=0;orthogonalLoop=1;jettySize=auto;html=1;" edge="1" parent="1" source="33" target="68"><mxGeometry relative="1" as="geometry"/></mxCell><mxCell id="72" style="edgeStyle=orthogonalEdgeStyle;rounded=0;orthogonalLoop=1;jettySize=auto;html=1;" edge="1" parent="1" source="33" target="69"><mxGeometry relative="1" as="geometry"/></mxCell><mxCell id="73" style="edgeStyle=orthogonalEdgeStyle;rounded=0;orthogonalLoop=1;jettySize=auto;html=1;" edge="1" parent="1" source="33" target="70"><mxGeometry relative="1" as="geometry"/></mxCell><mxCell id="33" value="PLAYING" style="rounded=0;whiteSpace=wrap;html=1;" parent="1" vertex="1"><mxGeometry x="-670" y="20" width="120" height="40" as="geometry"/></mxCell><mxCell id="35" value="0" style="text;html=1;align=center;verticalAlign=middle;resizable=0;points=[];autosize=1;strokeColor=none;fillColor=none;" parent="1" vertex="1"><mxGeometry x="-510" y="-190" width="30" height="30" as="geometry"/></mxCell><mxCell id="39" style="edgeStyle=orthogonalEdgeStyle;rounded=0;orthogonalLoop=1;jettySize=auto;html=1;" parent="1" source="36" edge="1"><mxGeometry relative="1" as="geometry"><mxPoint x="-610" y="-50" as="targetPoint"/></mxGeometry></mxCell><mxCell id="44" style="edgeStyle=orthogonalEdgeStyle;rounded=0;orthogonalLoop=1;jettySize=auto;html=1;" parent="1" source="36" edge="1"><mxGeometry relative="1" as="geometry"><mxPoint x="-420" y="-300" as="targetPoint"/><Array as="points"><mxPoint x="-320" y="-50"/><mxPoint x="-320" y="-300"/><mxPoint x="-420" y="-300"/></Array></mxGeometry></mxCell><mxCell id="36" value="is my turn" style="rhombus;whiteSpace=wrap;html=1;" parent="1" vertex="1"><mxGeometry x="-480" y="-85" width="120" height="70" as="geometry"/></mxCell><mxCell id="40" value="1" style="text;html=1;align=center;verticalAlign=middle;resizable=0;points=[];autosize=1;strokeColor=none;fillColor=none;" parent="1" vertex="1"><mxGeometry x="-490" y="-85" width="30" height="30" as="geometry"/></mxCell><mxCell id="47" value="0" style="text;html=1;align=center;verticalAlign=middle;resizable=0;points=[];autosize=1;strokeColor=none;fillColor=none;" parent="1" vertex="1"><mxGeometry x="-370" y="-85" width="30" height="30" as="geometry"/></mxCell><mxCell id="57" style="edgeStyle=orthogonalEdgeStyle;rounded=0;orthogonalLoop=1;jettySize=auto;html=1;" edge="1" parent="1" source="54" target="56"><mxGeometry relative="1" as="geometry"/></mxCell><mxCell id="54" value="CREATING GAME" style="rounded=0;whiteSpace=wrap;html=1;" vertex="1" parent="1"><mxGeometry x="-110" y="-190" width="120" height="40" as="geometry"/></mxCell><mxCell id="59" style="edgeStyle=orthogonalEdgeStyle;rounded=0;orthogonalLoop=1;jettySize=auto;html=1;exitX=0;exitY=0.5;exitDx=0;exitDy=0;" edge="1" parent="1" source="56"><mxGeometry relative="1" as="geometry"><mxPoint x="30" y="-300" as="targetPoint"/><Array as="points"><mxPoint x="-160" y="-80"/><mxPoint x="-160" y="-300"/></Array></mxGeometry></mxCell><mxCell id="66" style="edgeStyle=orthogonalEdgeStyle;rounded=0;orthogonalLoop=1;jettySize=auto;html=1;exitX=1;exitY=0.5;exitDx=0;exitDy=0;" edge="1" parent="1" source="56"><mxGeometry relative="1" as="geometry"><mxPoint x="-420" y="-330" as="targetPoint"/><Array as="points"><mxPoint x="140" y="-80"/><mxPoint x="140" y="-610"/><mxPoint x="-440" y="-610"/></Array></mxGeometry></mxCell><mxCell id="56" value="error" style="rhombus;whiteSpace=wrap;html=1;" vertex="1" parent="1"><mxGeometry x="-110" y="-115" width="120" height="70" as="geometry"/></mxCell><mxCell id="60" value="1" style="text;html=1;align=center;verticalAlign=middle;resizable=0;points=[];autosize=1;strokeColor=none;fillColor=none;" vertex="1" parent="1"><mxGeometry x="-140" y="-115" width="30" height="30" as="geometry"/></mxCell><mxCell id="64" value="0" style="text;html=1;align=center;verticalAlign=middle;resizable=0;points=[];autosize=1;strokeColor=none;fillColor=none;" vertex="1" parent="1"><mxGeometry y="-115" width="30" height="30" as="geometry"/></mxCell><mxCell id="75" style="edgeStyle=orthogonalEdgeStyle;rounded=0;orthogonalLoop=1;jettySize=auto;html=1;exitX=0.5;exitY=1;exitDx=0;exitDy=0;" edge="1" parent="1" source="68"><mxGeometry relative="1" as="geometry"><mxPoint x="-430" y="-300" as="targetPoint"/><Array as="points"><mxPoint x="-760" y="230"/><mxPoint x="-910" y="230"/><mxPoint x="-910" y="-300"/></Array></mxGeometry></mxCell><mxCell id="68" value="PLACING SHIPS" style="rounded=0;whiteSpace=wrap;html=1;" vertex="1" parent="1"><mxGeometry x="-820" y="160" width="120" height="40" as="geometry"/></mxCell><mxCell id="79" style="edgeStyle=orthogonalEdgeStyle;rounded=0;orthogonalLoop=1;jettySize=auto;html=1;" edge="1" parent="1" source="69"><mxGeometry relative="1" as="geometry"><mxPoint x="-750" y="230" as="targetPoint"/><Array as="points"><mxPoint x="-610" y="230"/></Array></mxGeometry></mxCell><mxCell id="69" value="CONFIRMING FLEET" style="rounded=0;whiteSpace=wrap;html=1;" vertex="1" parent="1"><mxGeometry x="-670" y="160" width="120" height="40" as="geometry"/></mxCell><mxCell id="81" style="edgeStyle=orthogonalEdgeStyle;rounded=0;orthogonalLoop=1;jettySize=auto;html=1;" edge="1" parent="1" source="70"><mxGeometry relative="1" as="geometry"><mxPoint x="-600" y="230" as="targetPoint"/><Array as="points"><mxPoint x="-460" y="230"/></Array></mxGeometry></mxCell><mxCell id="70" value="SHOOTING" style="rounded=0;whiteSpace=wrap;html=1;" vertex="1" parent="1"><mxGeometry x="-520" y="160" width="120" height="40" as="geometry"/></mxCell></root></mxGraphModel></diagram></mxfile>